<?xml version="1.0" encoding="UTF-8"?>
<svg width="512pt" height="512pt" version="1.1" viewBox="0 0 512 512" xmlns="http://www.w3.org/2000/svg">
 <path d="m112 38.363c-0.24219 0.019531-0.48438 0.046875-0.72656 0.078125-0.13281 0.015625-0.26562 0.03125-0.39844 0.054688-0.65625 0.039062-1.3086 0.13281-1.9492 0.27344-0.26953 0.074219-0.53906 0.16016-0.80078 0.25391-0.16797 0.0625-0.33594 0.125-0.5 0.19531-0.53125 0.18359-1.0508 0.40234-1.5508 0.65234-0.32422 0.16016-0.64062 0.33594-0.94922 0.52344-0.007812 0.007813-0.019531 0.015625-0.027344 0.027344-0.050781 0.039063-0.097656 0.082031-0.14844 0.125-0.035156 0.023437-0.070313 0.050781-0.10156 0.078125-0.5 0.33203-0.97656 0.69922-1.4258 1.0977-0.26953 0.23047-0.52734 0.47266-0.77734 0.72656-0.007813 0.007812-0.015626 0.015625-0.023438 0.023437-0.042969 0.058594-0.085938 0.11719-0.12891 0.17578-0.42188 0.46875-0.80469 0.97266-1.1484 1.5-0.22266 0.28906-0.42969 0.58984-0.625 0.89844v0.027344c-0.019531 0.03125-0.035156 0.066406-0.050781 0.10156v0.023438c-0.33594 0.66016-0.60938 1.3438-0.82812 2.0508-0.10547 0.25391-0.20703 0.51562-0.29688 0.77344v0.027343 0.027344 0.023437c-0.26172 1.0234-0.39453 2.0703-0.39844 3.125v368.9c0.007812 1.1055 0.15625 2.207 0.44922 3.2734 0.070313 0.21875 0.14453 0.43359 0.22656 0.64844 0.26953 0.85156 0.62891 1.6758 1.0742 2.4492 0.13281 0.22266 0.27734 0.44141 0.42578 0.65234 0.50391 0.76953 1.0898 1.4805 1.75 2.125 0.12109 0.12891 0.24609 0.25391 0.37109 0.37891 1.8008 1.6055 4.0195 2.6719 6.4023 3.0742l213.23 40.676h-0.003907c3.75 0.72266 7.625-0.26562 10.57-2.6953 2.9453-2.4258 4.6523-6.043 4.6562-9.8594v-27.875h61.707c3.4102 0.011719 6.6875-1.3359 9.0977-3.75 2.4141-2.4102 3.7617-5.6875 3.75-9.1016v-368.91c0.011719-3.4141-1.3359-6.6875-3.75-9.1016-2.4102-2.4141-5.6875-3.7617-9.0977-3.75zm135.27 25.602h139.98v343.38h-48.953v-315.5c-0.019531-6.168-4.4336-11.441-10.5-12.551zm-122.52 2.75 187.95 35.727v316.93-0.003907c-0.042969 0.25-0.078125 0.5-0.10156 0.75 0.023438 0.25781 0.058594 0.51562 0.10156 0.77344v24.449l-187.95-35.824zm159.5 159.88c-3.3984 0.011718-6.6484 1.3711-9.0391 3.7812s-3.7266 5.6719-3.7109 9.0664v33.176c0.027344 7.0312 5.7188 12.723 12.75 12.75 3.3945 0.011719 6.6523-1.3242 9.0625-3.7148 2.4102-2.3906 3.7734-5.6406 3.7852-9.0352v-33.176c0.015626-3.4102-1.3359-6.6875-3.75-9.1016-2.4102-2.4102-5.6875-3.7617-9.0977-3.7461z"/>
</svg>
