<?xml version="1.0" encoding="UTF-8"?>
<svg width="512pt" height="512pt" version="1.1" viewBox="0 0 512 512" xmlns="http://www.w3.org/2000/svg">
 <path d="m256 405.33c35.348 0 64-28.652 64-64 0-35.348-28.652-64-64-64s-64 28.652-64 64c0 35.348 28.652 64 64 64zm0-42.664c11.781 0 21.332-9.5508 21.332-21.336 0-11.781-9.5508-21.332-21.332-21.332s-21.332 9.5508-21.332 21.332c0 11.785 9.5508 21.336 21.332 21.336z" fill-rule="evenodd"/>
 <path d="m177.76 115.21c13.188-30.184 43.285-51.207 78.242-51.207 47.129 0 85.332 38.203 85.332 85.332v42.668h-213.33c-35.348 0-64 28.652-64 64v170.67c0 35.348 28.652 64 64 64h256c35.348 0 64-28.652 64-64v-170.67c0-35.348-28.652-64-64-64v-42.668c0-70.691-57.309-128-128-128-52.52 0-97.605 31.629-117.34 76.793-4.7188 10.797 0.21094 23.375 11.008 28.09 10.797 4.7188 23.371-0.21094 28.09-11.008zm-49.758 119.46c-11.781 0-21.332 9.5508-21.332 21.332v170.67c0 11.781 9.5508 21.332 21.332 21.332h256c11.781 0 21.332-9.5508 21.332-21.332v-170.67c0-11.781-9.5508-21.332-21.332-21.332z" fill-rule="evenodd"/>
</svg>
