<?xml version="1.0" encoding="UTF-8"?>
<svg width="512pt" height="512pt" version="1.1" viewBox="0 0 512 512" xmlns="http://www.w3.org/2000/svg">
 <path d="m401.12 256.48c21.742 0 41.426 8.6875 56.047 22.641 1.2656-7.2305 2.2578-14.543 2.7695-22h-32.258c-7.8398 0-14.398-6.5586-14.398-14.398 0-8 6.5586-14.398 14.398-14.398h32.258c-7.0742-104.88-90.738-188.53-195.62-195.61v32.242c0 7.8398-6.3984 14.398-14.398 14.398-7.8398 0-14.238-6.5586-14.238-14.398l-0.003906-32.242c-104.88 7.0742-188.54 90.723-195.62 195.6h32.258c7.8398 0 14.398 6.3984 14.398 14.398 0 7.8398-6.5586 14.398-14.398 14.398l-32.258 0.003906c7.1367 104.83 90.77 188.41 195.62 195.49v-32.129c0-8 6.3984-14.398 14.238-14.398 8 0 14.398 6.3984 14.398 14.398v32.129c12.48-0.84766 24.625-2.832 36.414-5.7617v-46.945c0-16.367 7.0898-31.711 18.785-42.449l0.003906-19.531c0-44.914 36.609-81.441 81.602-81.441zm-90.625 46.688c-2.8164 2.8164-6.4961 4.2227-10.176 4.2227-3.6797 0-7.375-1.4062-10.176-4.2227l-50.32-50.336c-2.7031-2.6875-4.2227-6.3516-4.2227-10.176v-97.168c0-7.9531 6.4492-14.398 14.398-14.398 7.9531 0 14.398 6.4492 14.398 14.398v91.215l46.098 46.098c5.6172 5.6133 5.6172 14.75 0 20.367z"/>
 <path d="m453.76 372.89v-34.973c0-29.121-23.52-52.641-52.641-52.641s-52.801 23.52-52.801 52.641v35.008c-10.961 4.1133-18.785 14.594-18.785 26.977v51.199c0 15.953 12.945 28.895 28.895 28.895h85.344c15.953 0 28.895-12.945 28.895-28.895v-51.199c0.003906-12.434-7.8984-22.945-18.906-27.012zm-38.273 54.352c0 7.9531-6.4492 14.398-14.398 14.398-7.9531 0-14.398-6.4492-14.398-14.398v-3.5039c0-7.9531 6.4492-14.398 14.398-14.398 7.9531 0 14.398 6.4492 14.398 14.398zm9.4727-56.238h-47.84v-33.086c0-13.121 10.719-23.84 24-23.84 13.121 0 23.84 10.719 23.84 23.84z"/>
</svg>
